<?xml version="1.0" encoding="UTF-8" standalone="no"?>
<svg width="224px" height="111px" viewBox="0 0 224 111" version="1.1" xmlns="http://www.w3.org/2000/svg" xmlns:xlink="http://www.w3.org/1999/xlink" xmlns:sketch="http://www.bohemiancoding.com/sketch/ns">
    <!-- Generator: Sketch 3.0.4 (8054) - http://www.bohemiancoding.com/sketch -->
    <title>sorry</title>
    <desc>Created with Sketch.</desc>
    <defs></defs>
    <g id="Page-1" stroke="none" stroke-width="1" fill="none" fill-rule="evenodd" sketch:type="MSPage">
        <g id="Landscape" sketch:type="MSArtboardGroup" transform="translate(-836.000000, -351.000000)" fill="#FFFFFF">
            <path d="M877.05,412.62 C877.05,401.57 872.29,393.75 861.92,387.46 C851.72,380.83 848.66,376.75 848.66,370.46 C848.66,365.87 851.72,362.64 857.16,362.64 C863.28,362.64 866.34,365.87 866.34,371.14 L866.34,376.75 L876.37,376.75 L876.37,372.16 C876.37,359.07 870.42,351.42 856.99,351.42 C845.26,351.42 837.27,359.75 837.27,371.82 C837.27,382.53 843.9,390.35 854.1,396.3 C863.96,403.44 865.66,407.01 865.66,413.98 C865.66,419.59 862.6,422.82 856.48,422.82 C850.53,422.82 846.79,419.59 846.79,412.28 L846.79,407.01 L836.42,407.01 L836.42,411.6 C836.42,424.86 843.22,433.36 856.82,433.36 C869.4,433.36 877.05,424.18 877.05,412.62 Z M928.9,409.9 L928.9,375.05 C928.9,360.77 920.57,351.42 907.99,351.42 C895.24,351.42 886.91,360.77 886.91,375.05 L886.91,409.9 C886.91,424.35 895.24,433.36 907.99,433.36 C920.57,433.36 928.9,424.35 928.9,409.9 Z M916.83,412.11 C916.83,418.06 913.77,421.97 907.99,421.97 C902.21,421.97 899.15,418.06 899.15,412.11 L899.15,372.67 C899.15,366.89 902.21,362.64 907.99,362.64 C913.77,362.64 916.83,366.89 916.83,372.67 L916.83,412.11 Z M971.4,365.02 L971.4,351.93 C962.73,350.74 956.61,353.97 953.21,364.34 L952.36,352.44 L941.65,352.44 L941.65,432 L954.06,432 L954.06,374.71 C954.06,367.74 958.48,363.83 971.4,365.02 L971.4,365.02 Z M1009.65,365.02 L1009.65,351.93 C1000.98,350.74 994.86,353.97 991.46,364.34 L990.61,352.44 L979.9,352.44 L979.9,432 L992.31,432 L992.31,374.71 C992.31,367.74 996.73,363.83 1009.65,365.02 L1009.65,365.02 Z M1058.95,352.44 L1046.88,352.44 L1039.23,396.81 L1036.34,414.49 L1033.79,396.81 L1026.14,352.44 L1014.07,352.44 L1030.9,433.53 L1029.37,443.05 C1028.35,447.81 1026.82,450.19 1021.04,450.19 L1017.98,450.19 L1017.98,460.73 L1021.89,460.73 C1034.81,460.73 1038.21,452.74 1041.1,438.63 L1058.95,352.44 Z" id="sorry" sketch:type="MSShapeGroup"></path>
        </g>
    </g>
</svg>