<?xml version="1.0" encoding="UTF-8" standalone="no"?>
<svg width="253px" height="95px" viewBox="0 0 253 95" version="1.1" xmlns="http://www.w3.org/2000/svg" xmlns:xlink="http://www.w3.org/1999/xlink" xmlns:sketch="http://www.bohemiancoding.com/sketch/ns">
    <!-- Generator: Sketch 3.0.4 (8054) - http://www.bohemiancoding.com/sketch -->
    <title>WTF!</title>
    <desc>Created with Sketch.</desc>
    <defs></defs>
    <g id="Page-1" stroke="none" stroke-width="1" fill="none" fill-rule="evenodd" sketch:type="MSPage">
        <g id="Landscape" sketch:type="MSArtboardGroup" transform="translate(-50.000000, -338.000000)" fill="#FFFFFF">
            <path d="M149.79,338.76 L126.2,338.76 L119.06,388.6 L112.06,338.76 L91.76,338.76 L85.04,388.6 L78.04,338.76 L50.6,338.76 L68.38,432 L93.02,432 L100.58,391.82 L107.86,432 L133.06,432 L149.16,345.527419 L149.16,361.3 L167.22,361.3 L167.22,432 L195.36,432 L195.36,361.3 L213.42,361.3 L213.42,338.76 L149.79,338.76 L149.79,338.76 Z M149.79,338.76 L150.42,338.76 L149.16,345.527419 L149.16,338.76 L149.79,338.76 L149.79,338.76 Z M273.34,360.46 L273.34,338.76 L217.34,338.76 L217.34,432 L245.48,432 L245.48,398.54 L263.54,398.54 L263.54,377.68 L245.48,377.68 L245.48,360.46 L273.34,360.46 Z M301.62,375.3 L301.62,338.76 L278.24,338.76 L278.24,375.3 L285.38,403.16 L294.48,403.16 L301.62,375.3 Z M299.8,432 L299.8,410.72 L279.78,410.72 L279.78,432 L299.8,432 Z" id="WTF!" sketch:type="MSShapeGroup"></path>
        </g>
    </g>
</svg>